<?xml version="1.0" standalone="no"?><!DOCTYPE svg PUBLIC "-//W3C//DTD SVG 1.1//EN" "http://www.w3.org/Graphics/SVG/1.1/DTD/svg11.dtd"><svg t="1588396130772" class="icon" viewBox="0 0 1024 1024" version="1.1" xmlns="http://www.w3.org/2000/svg" p-id="2138" xmlns:xlink="http://www.w3.org/1999/xlink" width="200" height="200"><defs><style type="text/css"></style></defs><path d="M577.828864 446.17216l329.14432 0C943.327232 446.17216 972.8 475.621376 972.8 512c0 36.393984-29.472768 65.828864-65.826816 65.828864l-329.14432 0 0 329.14432C577.828864 943.367168 548.35712 972.8 512 972.8c-36.356096 0-65.828864-29.432832-65.828864-65.826816l0-329.14432L117.028864 577.828864C80.676864 577.828864 51.2 548.393984 51.2 512c0-36.378624 29.476864-65.82784 65.828864-65.82784l329.143296 0L446.17216 117.028864C446.17216 80.65024 475.644928 51.2 512 51.2c36.356096 0 65.828864 29.45024 65.828864 65.828864L577.828864 446.17216z" p-id="2139"></path></svg>